<svg width="33" height="31" viewBox="0 0 33 31" fill="none" xmlns="http://www.w3.org/2000/svg">
<path d="M33 14.5332C33 22.5597 25.6121 29.0665 16.5 29.0665C14.8658 29.0687 13.2383 28.8551 11.6593 28.4312C10.4548 29.0457 7.689 30.225 3.036 30.9932C2.6235 31.0596 2.31 30.6278 2.47294 30.2416C3.20306 28.5059 3.86306 26.1931 4.06106 24.0837C1.5345 21.53 0 18.1873 0 14.5332C0 6.50674 7.38787 0 16.5 0C25.6121 0 33 6.50674 33 14.5332ZM9.28125 8.30471C9.00775 8.30471 8.74544 8.41408 8.55205 8.60876C8.35865 8.80344 8.25 9.06748 8.25 9.3428C8.25 9.61812 8.35865 9.88216 8.55205 10.0768C8.74544 10.2715 9.00775 10.3809 9.28125 10.3809H23.7188C23.9923 10.3809 24.2546 10.2715 24.448 10.0768C24.6414 9.88216 24.75 9.61812 24.75 9.3428C24.75 9.06748 24.6414 8.80344 24.448 8.60876C24.2546 8.41408 23.9923 8.30471 23.7188 8.30471H9.28125ZM9.28125 13.4952C9.00775 13.4952 8.74544 13.6045 8.55205 13.7992C8.35865 13.9939 8.25 14.2579 8.25 14.5332C8.25 14.8086 8.35865 15.0726 8.55205 15.2673C8.74544 15.462 9.00775 15.5713 9.28125 15.5713H23.7188C23.9923 15.5713 24.2546 15.462 24.448 15.2673C24.6414 15.0726 24.75 14.8086 24.75 14.5332C24.75 14.2579 24.6414 13.9939 24.448 13.7992C24.2546 13.6045 23.9923 13.4952 23.7188 13.4952H9.28125ZM9.28125 18.6856C9.00775 18.6856 8.74544 18.795 8.55205 18.9896C8.35865 19.1843 8.25 19.4484 8.25 19.7237C8.25 19.999 8.35865 20.2631 8.55205 20.4577C8.74544 20.6524 9.00775 20.7618 9.28125 20.7618H17.5313C17.8048 20.7618 18.0671 20.6524 18.2605 20.4577C18.4539 20.2631 18.5625 19.999 18.5625 19.7237C18.5625 19.4484 18.4539 19.1843 18.2605 18.9896C18.0671 18.795 17.8048 18.6856 17.5313 18.6856H9.28125Z" fill="white"/>
</svg>
