<svg width="101" height="36" viewBox="0 0 101 36" fill="none" xmlns="http://www.w3.org/2000/svg">
<path d="M38.048 14.408C38.416 13.784 38.936 13.288 39.608 12.92C40.28 12.552 41.072 12.368 41.984 12.368C43.056 12.368 44.024 12.648 44.888 13.208C45.768 13.768 46.456 14.568 46.952 15.608C47.464 16.648 47.72 17.864 47.72 19.256C47.72 20.648 47.464 21.872 46.952 22.928C46.456 23.968 45.768 24.768 44.888 25.328C44.024 25.888 43.056 26.168 41.984 26.168C41.072 26.168 40.28 25.984 39.608 25.616C38.952 25.248 38.432 24.752 38.048 24.128V32.432H33.344V12.536H38.048V14.408ZM42.944 19.256C42.944 18.376 42.704 17.696 42.224 17.216C41.76 16.72 41.184 16.472 40.496 16.472C39.808 16.472 39.224 16.72 38.744 17.216C38.28 17.712 38.048 18.392 38.048 19.256C38.048 20.136 38.28 20.824 38.744 21.32C39.224 21.816 39.808 22.064 40.496 22.064C41.184 22.064 41.76 21.816 42.224 21.32C42.704 20.808 42.944 20.12 42.944 19.256ZM63.4325 12.536V26H58.7045V24.08C58.3045 24.688 57.7525 25.184 57.0485 25.568C56.3445 25.936 55.5365 26.12 54.6245 26.12C53.0565 26.12 51.8165 25.608 50.9045 24.584C50.0085 23.544 49.5605 22.136 49.5605 20.36V12.536H54.2405V19.76C54.2405 20.528 54.4405 21.136 54.8405 21.584C55.2565 22.016 55.8005 22.232 56.4725 22.232C57.1605 22.232 57.7045 22.016 58.1045 21.584C58.5045 21.136 58.7045 20.528 58.7045 19.76V12.536H63.4325ZM70.8136 8.24V26H66.1096V8.24H70.8136ZM79.2284 26.168C78.0124 26.168 76.9244 25.968 75.9644 25.568C75.0204 25.152 74.2684 24.592 73.7084 23.888C73.1644 23.168 72.8604 22.36 72.7964 21.464H77.3564C77.4204 21.896 77.6204 22.232 77.9564 22.472C78.2924 22.712 78.7084 22.832 79.2044 22.832C79.5884 22.832 79.8924 22.752 80.1164 22.592C80.3404 22.432 80.4524 22.224 80.4524 21.968C80.4524 21.632 80.2684 21.384 79.9004 21.224C79.5324 21.064 78.9244 20.888 78.0764 20.696C77.1164 20.504 76.3164 20.288 75.6764 20.048C75.0364 19.808 74.4764 19.416 73.9964 18.872C73.5324 18.328 73.3004 17.592 73.3004 16.664C73.3004 15.864 73.5164 15.144 73.9484 14.504C74.3804 13.848 75.0124 13.328 75.8444 12.944C76.6924 12.56 77.7084 12.368 78.8924 12.368C80.6524 12.368 82.0364 12.8 83.0444 13.664C84.0524 14.528 84.6364 15.664 84.7964 17.072H80.5484C80.4684 16.64 80.2764 16.312 79.9724 16.088C79.6844 15.848 79.2924 15.728 78.7964 15.728C78.4124 15.728 78.1164 15.8 77.9084 15.944C77.7164 16.088 77.6204 16.288 77.6204 16.544C77.6204 16.864 77.8044 17.112 78.1724 17.288C78.5404 17.448 79.1324 17.616 79.9484 17.792C80.9244 18 81.7324 18.232 82.3724 18.488C83.0284 18.744 83.5964 19.16 84.0764 19.736C84.5724 20.296 84.8204 21.064 84.8204 22.04C84.8204 22.824 84.5884 23.528 84.1244 24.152C83.6764 24.776 83.0284 25.272 82.1804 25.64C81.3484 25.992 80.3644 26.168 79.2284 26.168ZM99.9971 19.112C99.9971 19.48 99.9731 19.848 99.9251 20.216H91.0211C91.0691 20.952 91.2691 21.504 91.6211 21.872C91.9891 22.224 92.4531 22.4 93.0131 22.4C93.7971 22.4 94.3571 22.048 94.6931 21.344H99.7091C99.5011 22.272 99.0931 23.104 98.4851 23.84C97.8931 24.56 97.1411 25.128 96.2291 25.544C95.3171 25.96 94.3091 26.168 93.2051 26.168C91.8771 26.168 90.6931 25.888 89.6531 25.328C88.6291 24.768 87.8211 23.968 87.2291 22.928C86.6531 21.888 86.3651 20.664 86.3651 19.256C86.3651 17.848 86.6531 16.632 87.2291 15.608C87.8051 14.568 88.6051 13.768 89.6291 13.208C90.6691 12.648 91.8611 12.368 93.2051 12.368C94.5331 12.368 95.7091 12.64 96.7331 13.184C97.7571 13.728 98.5571 14.512 99.1331 15.536C99.7091 16.544 99.9971 17.736 99.9971 19.112ZM95.1971 17.936C95.1971 17.36 95.0051 16.912 94.6211 16.592C94.2371 16.256 93.7571 16.088 93.1811 16.088C92.6051 16.088 92.1331 16.248 91.7651 16.568C91.3971 16.872 91.1571 17.328 91.0451 17.936H95.1971Z" fill="black"/>
<path fill-rule="evenodd" clip-rule="evenodd" d="M28 22C28 29.732 21.732 36 14 36C6.26798 36 -3.05176e-05 29.732 -3.05176e-05 22C-3.05176e-05 14.268 6.26798 8 14 8C21.732 8 28 14.268 28 22ZM25.6666 22C25.6666 28.4433 20.4433 33.6667 14 33.6667C7.55665 33.6667 2.3333 28.4433 2.3333 22C2.3333 15.5567 7.55665 10.3333 14 10.3333C20.4433 10.3333 25.6666 15.5567 25.6666 22Z" fill="black"/>
<path d="M3 29.5C6.41356 29.5 6.97347 26.2896 7.98476 23M7.98476 23C9.04725 19.5438 10.608 16 16.5 16C24.5 16 22.4695 30 7.98476 23Z" stroke="black" stroke-width="3"/>
</svg>
